<svg xmlns="http://www.w3.org/2000/svg" viewBox="0 0 80 80"><path d="M18 10C13.593567 10 10 13.593567 10 18C10 22.406433 13.593567 26 18 26C22.406433 26 26 22.406433 26 18C26 13.593567 22.406433 10 18 10 z M 40 10C35.593567 10 32 13.593567 32 18C32 22.406433 35.593567 26 40 26C44.406433 26 48 22.406433 48 18C48 13.593567 44.406433 10 40 10 z M 62 10C57.593567 10 54 13.593567 54 18C54 22.406433 57.593567 26 62 26C66.406433 26 70 22.406433 70 18C70 13.593567 66.406433 10 62 10 z M 18 12C21.325553 12 24 14.674447 24 18C24 21.325553 21.325553 24 18 24C14.674447 24 12 21.325553 12 18C12 14.674447 14.674447 12 18 12 z M 40 12C43.325553 12 46 14.674447 46 18C46 21.325553 43.325553 24 40 24C36.674447 24 34 21.325553 34 18C34 14.674447 36.674447 12 40 12 z M 62 12C65.325553 12 68 14.674447 68 18C68 21.325553 65.325553 24 62 24C58.674447 24 56 21.325553 56 18C56 14.674447 58.674447 12 62 12 z M 15 17 A 1 1 0 0 0 14 18 A 1 1 0 0 0 15 19 A 1 1 0 0 0 16 18 A 1 1 0 0 0 15 17 z M 21 17 A 1 1 0 0 0 20 18 A 1 1 0 0 0 21 19 A 1 1 0 0 0 22 18 A 1 1 0 0 0 21 17 z M 37 17 A 1 1 0 0 0 36 18 A 1 1 0 0 0 37 19 A 1 1 0 0 0 38 18 A 1 1 0 0 0 37 17 z M 43 17 A 1 1 0 0 0 42 18 A 1 1 0 0 0 43 19 A 1 1 0 0 0 44 18 A 1 1 0 0 0 43 17 z M 59 17 A 1 1 0 0 0 58 18 A 1 1 0 0 0 59 19 A 1 1 0 0 0 60 18 A 1 1 0 0 0 59 17 z M 65 17 A 1 1 0 0 0 64 18 A 1 1 0 0 0 65 19 A 1 1 0 0 0 66 18 A 1 1 0 0 0 65 17 z M 18 32C13.593567 32 10 35.593567 10 40C10 44.406433 13.593567 48 18 48C22.406433 48 26 44.406433 26 40C26 35.593567 22.406433 32 18 32 z M 40 32C35.593567 32 32 35.593567 32 40C32 44.406433 35.593567 48 40 48C44.406433 48 48 44.406433 48 40C48 35.593567 44.406433 32 40 32 z M 62 32C57.593567 32 54 35.593567 54 40C54 44.406433 57.593567 48 62 48C66.406433 48 70 44.406433 70 40C70 35.593567 66.406433 32 62 32 z M 18 34C21.325553 34 24 36.674447 24 40C24 43.325553 21.325553 46 18 46C14.674447 46 12 43.325553 12 40C12 36.674447 14.674447 34 18 34 z M 40 34C43.325553 34 46 36.674447 46 40C46 43.325553 43.325553 46 40 46C36.674447 46 34 43.325553 34 40C34 36.674447 36.674447 34 40 34 z M 62 34C65.325553 34 68 36.674447 68 40C68 43.325553 65.325553 46 62 46C58.674447 46 56 43.325553 56 40C56 36.674447 58.674447 34 62 34 z M 15 39 A 1 1 0 0 0 14 40 A 1 1 0 0 0 15 41 A 1 1 0 0 0 16 40 A 1 1 0 0 0 15 39 z M 21 39 A 1 1 0 0 0 20 40 A 1 1 0 0 0 21 41 A 1 1 0 0 0 22 40 A 1 1 0 0 0 21 39 z M 37 39 A 1 1 0 0 0 36 40 A 1 1 0 0 0 37 41 A 1 1 0 0 0 38 40 A 1 1 0 0 0 37 39 z M 43 39 A 1 1 0 0 0 42 40 A 1 1 0 0 0 43 41 A 1 1 0 0 0 44 40 A 1 1 0 0 0 43 39 z M 59 39 A 1 1 0 0 0 58 40 A 1 1 0 0 0 59 41 A 1 1 0 0 0 60 40 A 1 1 0 0 0 59 39 z M 65 39 A 1 1 0 0 0 64 40 A 1 1 0 0 0 65 41 A 1 1 0 0 0 66 40 A 1 1 0 0 0 65 39 z M 18 54C13.593567 54 10 57.593567 10 62C10 66.406433 13.593567 70 18 70C22.406433 70 26 66.406433 26 62C26 57.593567 22.406433 54 18 54 z M 40 54C35.593567 54 32 57.593567 32 62C32 66.406433 35.593567 70 40 70C44.406433 70 48 66.406433 48 62C48 57.593567 44.406433 54 40 54 z M 62 54C57.593567 54 54 57.593567 54 62C54 66.406433 57.593567 70 62 70C66.406433 70 70 66.406433 70 62C70 57.593567 66.406433 54 62 54 z M 18 56C21.325553 56 24 58.674447 24 62C24 65.325553 21.325553 68 18 68C14.674447 68 12 65.325553 12 62C12 58.674447 14.674447 56 18 56 z M 40 56C43.325553 56 46 58.674447 46 62C46 65.325553 43.325553 68 40 68C36.674447 68 34 65.325553 34 62C34 58.674447 36.674447 56 40 56 z M 62 56C65.325553 56 68 58.674447 68 62C68 65.325553 65.325553 68 62 68C58.674447 68 56 65.325553 56 62C56 58.674447 58.674447 56 62 56 z M 15 61 A 1 1 0 0 0 14 62 A 1 1 0 0 0 15 63 A 1 1 0 0 0 16 62 A 1 1 0 0 0 15 61 z M 21 61 A 1 1 0 0 0 20 62 A 1 1 0 0 0 21 63 A 1 1 0 0 0 22 62 A 1 1 0 0 0 21 61 z M 37 61 A 1 1 0 0 0 36 62 A 1 1 0 0 0 37 63 A 1 1 0 0 0 38 62 A 1 1 0 0 0 37 61 z M 43 61 A 1 1 0 0 0 42 62 A 1 1 0 0 0 43 63 A 1 1 0 0 0 44 62 A 1 1 0 0 0 43 61 z M 59 61 A 1 1 0 0 0 58 62 A 1 1 0 0 0 59 63 A 1 1 0 0 0 60 62 A 1 1 0 0 0 59 61 z M 65 61 A 1 1 0 0 0 64 62 A 1 1 0 0 0 65 63 A 1 1 0 0 0 66 62 A 1 1 0 0 0 65 61 z"/></svg>