<svg xmlns="http://www.w3.org/2000/svg" viewBox="0 0 50 50"><path d="M8 3.0097656C4.53 3.0097656 2.0097656 5.0892187 2.0097656 7.9492188C2.0097656 10.819219 4.59 12.990234 8 12.990234C11.47 12.990234 13.990234 10.870625 13.990234 7.890625C13.830234 5.020625 11.36 3.0097656 8 3.0097656 z M 3 15C2.45 15 2 15.45 2 16L2 45C2 45.55 2.45 46 3 46L13 46C13.55 46 14 45.55 14 45L14 16C14 15.45 13.55 15 13 15L3 15 z M 18 15C17.45 15 17 15.45 17 16L17 45C17 45.55 17.45 46 18 46L27 46C27.552 46 28 45.552 28 45L28 30L28 29.75L28 29.5C28 27.13 29.820625 25.199531 32.140625 25.019531C32.260625 24.999531 32.38 25 32.5 25C32.62 25 32.739375 24.999531 32.859375 25.019531C35.179375 25.199531 37 27.13 37 29.5L37 45C37 45.552 37.448 46 38 46L47 46C47.55 46 48 45.55 48 45L48 28C48 21.53 44.529063 15 36.789062 15C33.269062 15 30.61 16.360234 29 17.490234L29 16C29 15.45 28.55 15 28 15L18 15 z"/></svg>