<svg xmlns="http://www.w3.org/2000/svg" width="48" height="48" viewBox="0 0 48 48"><path fill="#5E35B1" d="M24 4A20 20 0 1 0 24 44A20 20 0 1 0 24 4Z"/><path fill="#311B92" d="M24,4c-6.543,0-12.335,3.157-15.984,8.016C11.358,9.506,15.498,8,20,8c11.045,0,20,8.955,20,20c0,4.502-1.506,8.642-4.016,11.984C40.843,36.335,44,30.543,44,24C44,12.955,35.045,4,24,4z"/><path fill="#9575CD" d="M17.5 11.5c1.933 0 3.5 1.567 3.5 3.5s-1.567 3.5-3.5 3.5c-.168 0-.328-.026-.49-.049C17.599 18.791 18.271 19 19 19c2.209 0 4-1.791 4-4s-1.791-4-4-4c-.729 0-1.401.209-1.99.549C17.172 11.526 17.332 11.5 17.5 11.5zM36 31.5c0 1.024-.618 1.903-1.5 2.289.307.134.644.211 1 .211 1.381 0 2.5-1.119 2.5-2.5S36.881 29 35.5 29c-.356 0-.693.077-1 .211C35.382 29.598 36 30.476 36 31.5zM12 26.5c0 1.024-.618 1.903-1.5 2.289.307.134.644.211 1 .211 1.381 0 2.5-1.119 2.5-2.5S12.881 24 11.5 24c-.356 0-.693.077-1 .211C11.382 24.598 12 25.476 12 26.5zM22 32.5c0 1.583-1.058 2.904-2.5 3.338.318.096.65.162 1 .162 1.933 0 3.5-1.567 3.5-3.5S22.433 29 20.5 29c-.35 0-.682.066-1 .162C20.942 29.596 22 30.917 22 32.5z"/></svg>